<svg width="30" height="30" viewBox="0 0 30 30" fill="none" xmlns="http://www.w3.org/2000/svg">
<g clip-path="url(#clip0_518_17)">
<path d="M28.75 13.7495H1.25C0.559644 13.7495 0 14.3092 0 14.9995C0 15.6899 0.559644 16.2495 1.25 16.2495H28.75C29.4404 16.2495 30 15.6899 30 14.9995C30 14.3092 29.4404 13.7495 28.75 13.7495Z" fill="black"/>
<path d="M28.75 5.00049H1.25C0.559644 5.00049 0 5.56013 0 6.25049C0 6.94084 0.559644 7.50048 1.25 7.50048H28.75C29.4404 7.50048 30 6.94084 30 6.25049C30 5.56013 29.4404 5.00049 28.75 5.00049Z" fill="black"/>
<path d="M28.75 22.5H1.25C0.559644 22.5 0 23.0596 0 23.75C0 24.4404 0.559644 25 1.25 25H28.75C29.4404 25 30 24.4404 30 23.75C30 23.0596 29.4404 22.5 28.75 22.5Z" fill="black"/>
</g>
<defs>
<clipPath id="clip0_518_17">
<rect width="30" height="30" fill="white"/>
</clipPath>
</defs>
</svg>
