<svg width="30" height="30" viewBox="0 0 30 30" fill="none" xmlns="http://www.w3.org/2000/svg">
<path d="M25.7266 5.52343C25.3913 5.18828 24.9367 5 24.4626 5C23.9886 5 23.5339 5.18828 23.1987 5.52343L15 13.7221L6.80133 5.52343C6.46607 5.18828 6.01143 5 5.53738 5C5.06333 5 4.60869 5.18828 4.27343 5.52343C3.93828 5.85869 3.75 6.31333 3.75 6.78738C3.75 7.26143 3.93828 7.71607 4.27343 8.05133L12.4721 16.25L4.27343 24.4487C3.93828 24.7839 3.75 25.2386 3.75 25.7126C3.75 26.1867 3.93828 26.6413 4.27343 26.9766C4.60869 27.3117 5.06333 27.5 5.53738 27.5C6.01143 27.5 6.46607 27.3117 6.80133 26.9766L15 18.7779L23.1987 26.9766C23.5339 27.3117 23.9886 27.5 24.4626 27.5C24.9367 27.5 25.3913 27.3117 25.7266 26.9766C26.0617 26.6413 26.25 26.1867 26.25 25.7126C26.25 25.2386 26.0617 24.7839 25.7266 24.4487L17.5279 16.25L25.7266 8.05133C26.0617 7.71607 26.25 7.26143 26.25 6.78738C26.25 6.31333 26.0617 5.85869 25.7266 5.52343V5.52343Z" fill="white"/>
</svg>
