<svg width="159" height="160" viewBox="0 0 159 160" fill="none" xmlns="http://www.w3.org/2000/svg">
<path d="M76.981 79.9078C76.981 79.9078 44.7634 68.0544 16.8548 70.9568C1.80713 72.5217 1.09133 40.753 18.6663 38.4342C41.8436 35.3763 76.981 79.9078 76.981 79.9078Z" fill="#41CF8F"/>
<path d="M78.3106 79.5276C78.3106 79.5276 72.4765 45.698 56.015 22.9751C47.1393 10.7234 74.2984 -5.77327 85.0901 8.29069C99.3219 26.8378 78.3106 79.5276 78.3106 79.5276Z" fill="#41CF8F"/>
<path d="M79.7856 80.3913C79.7856 80.3913 106.539 58.8795 118.424 33.462C124.832 19.7574 152.432 35.505 145.369 51.7642C136.053 73.2063 79.7856 80.3913 79.7856 80.3913Z" fill="#41CF8F"/>
<path d="M80.3427 81.9605C80.3427 81.9605 113.985 88.7918 141.131 81.6913C155.767 77.8628 161.292 109.156 144.272 114.112C121.826 120.649 80.3427 81.9605 80.3427 81.9605Z" fill="#41CF8F"/>
<path d="M77.7634 80.2978C77.7634 80.2978 86.1898 113.577 104.355 134.962C114.15 146.492 88.3441 165.035 76.4996 151.845C60.8794 134.452 77.7634 80.2978 77.7634 80.2978Z" fill="#41CF8F"/>
<path d="M75.9216 81.2344C75.9216 81.2344 50.5202 104.327 40.1957 130.417C34.6289 144.485 6.12585 130.437 12.1921 113.78C20.192 91.8131 75.9216 81.2344 75.9216 81.2344Z" fill="#41CF8F"/>
</svg>
