<svg width="160" height="160" viewBox="0 0 160 160" fill="none" xmlns="http://www.w3.org/2000/svg">
<path d="M78.8108 80.2183C78.8108 80.2183 47.0818 67.2167 19.069 68.6438C3.9651 69.4133 4.7434 39.1623 22.4071 37.7965C45.7014 35.9953 78.8108 80.2183 78.8108 80.2183Z" fill="#41CF8F"/>
<path d="M79.1507 79.2301C79.1507 79.2301 74.1641 44.7039 61.588 20.8064C54.8072 7.92133 78.6456 -6.44541 86.9378 8.39158C97.8733 27.9582 79.1507 79.2301 79.1507 79.2301Z" fill="#41CF8F"/>
<path d="M79.8124 79.8517C79.8124 79.8517 105.092 58.4583 116.465 33.2336C122.597 19.6329 148.007 35.6163 141.232 51.7577C132.298 73.0444 79.8124 79.8517 79.8124 79.8517Z" fill="#41CF8F"/>
<path d="M80.5 80.5002C80.5 80.5002 113.03 91.3067 140.585 88.9515C155.442 87.6816 157.268 116.171 139.933 118.094C117.072 120.631 80.5 80.5002 80.5 80.5002Z" fill="#41CF8F"/>
<path d="M79.7967 80.8518C79.7967 80.8518 87.6309 113.928 105.008 135.313C114.377 146.844 89.6916 165.387 78.3614 152.197C63.4194 134.803 79.7967 80.8518 79.7967 80.8518Z" fill="#41CF8F"/>
<path d="M79.2226 80.8518C79.2226 80.8518 53.6263 104.179 42.8199 129.948C36.9934 143.841 9.6796 128.943 16.0678 112.476C24.4924 90.7594 79.2226 80.8518 79.2226 80.8518Z" fill="#41CF8F"/>
<path d="M78.8109 80.2179C78.8109 80.2179 45.2051 84.7945 22.0103 99.76C9.50407 107.829 -6.18802 81.4671 8.18577 71.6303C27.1415 58.6579 78.8109 80.2179 78.8109 80.2179Z" fill="#41CF8F"/>
<path d="M79.1507 79.2301C79.1507 79.2301 59.7444 51.9916 36.742 39.5286C24.3396 32.8088 39.4908 5.5783 54.2189 13.0117C73.6419 22.8146 79.1507 79.2301 79.1507 79.2301Z" fill="#41CF8F"/>
<path d="M79.8125 79.8514C79.8125 79.8514 92.3888 48.0334 90.6093 20.0397C89.6499 4.94607 119.195 5.35414 120.772 23.0001C122.852 46.2711 79.8125 79.8514 79.8125 79.8514Z" fill="#41CF8F"/>
<path d="M80.5 80.5001C80.5 80.5001 114.693 75.4628 137.11 59.9998C149.197 51.6625 166.04 77.0734 152.174 87.209C133.888 100.575 80.5 80.5001 80.5 80.5001Z" fill="#41CF8F"/>
<path d="M79.7967 80.8512C79.7967 80.8512 101.389 106.59 126.5 116.5C140.039 121.843 127.651 149.717 111.628 143.915C90.4961 136.264 79.7967 80.8512 79.7967 80.8512Z" fill="#41CF8F"/>
<path d="M79.2227 80.8514C79.2227 80.8514 68.4785 114.802 72.7143 142.522C74.9982 157.467 44.1611 159.838 41.0164 142.407C36.8693 119.421 79.2227 80.8514 79.2227 80.8514Z" fill="#41CF8F"/>
</svg>
