<svg width="30" height="30" viewBox="0 0 30 30" fill="none" xmlns="http://www.w3.org/2000/svg">
<path d="M28.75 13.7498H1.25C0.559644 13.7498 0 14.3094 0 14.9998C0 15.6901 0.559644 16.2498 1.25 16.2498H28.75C29.4404 16.2498 30 15.6901 30 14.9998C30 14.3094 29.4404 13.7498 28.75 13.7498Z" fill="white"/>
<path d="M28.75 5.00024H1.25C0.559644 5.00024 0 5.55989 0 6.25024C0 6.9406 0.559644 7.50024 1.25 7.50024H28.75C29.4404 7.50024 30 6.9406 30 6.25024C30 5.55989 29.4404 5.00024 28.75 5.00024Z" fill="white"/>
<path d="M28.75 22.5H1.25C0.559644 22.5 0 23.0596 0 23.75C0 24.4404 0.559644 25 1.25 25H28.75C29.4404 25 30 24.4404 30 23.75C30 23.0596 29.4404 22.5 28.75 22.5Z" fill="white"/>
</svg>
